<svg xmlns="http://www.w3.org/2000/svg" width="1600" height="900" viewBox="0 0 1600 900">
  <defs>
    <radialGradient id="bgGlow" cx="50%" cy="0%" r="120%">
      <stop offset="0%" stop-color="#1B1F46"/><stop offset="55%" stop-color="#13152F"/><stop offset="100%" stop-color="#0A0B1E"/>
    </radialGradient>
    <linearGradient id="violetGrad" x1="0" y1="0" x2="1" y2="1"><stop offset="0%" stop-color="#A98BFF"/><stop offset="100%" stop-color="#6A4DF0"/></linearGradient>
    <linearGradient id="coolGrad" x1="0" y1="0" x2="1" y2="1"><stop offset="0%" stop-color="#3DD6F5"/><stop offset="100%" stop-color="#4F8BFF"/></linearGradient>
    <linearGradient id="mintGrad" x1="0" y1="0" x2="1" y2="1"><stop offset="0%" stop-color="#5BF0BC"/><stop offset="100%" stop-color="#23B987"/></linearGradient>
    <linearGradient id="amberGrad" x1="0" y1="0" x2="1" y2="1"><stop offset="0%" stop-color="#F2C266"/><stop offset="100%" stop-color="#D2872A"/></linearGradient>
    <linearGradient id="roseGrad" x1="0" y1="0" x2="1" y2="1"><stop offset="0%" stop-color="#FF9DB2"/><stop offset="100%" stop-color="#E0567C"/></linearGradient>
    <linearGradient id="hairline" x1="0" y1="0" x2="1" y2="0">
      <stop offset="0%" stop-color="rgba(139,108,255,0)"/><stop offset="50%" stop-color="rgba(139,108,255,0.55)"/><stop offset="100%" stop-color="rgba(61,214,245,0)"/>
    </linearGradient>
    <filter id="glow" x="-80%" y="-80%" width="260%" height="260%"><feGaussianBlur stdDeviation="9"/></filter>
  </defs><rect width="1600" height="900" fill="url(#bgGlow)"/>
    <text x="80" y="92" font-family="Segoe UI, Helvetica Neue, Arial, sans-serif" font-size="20" letter-spacing="3" font-weight="700" fill="#3DD6F5">ONE PROJECT, MANY MODALITIES</text>
    <text x="80" y="146" font-family="Segoe UI, Helvetica Neue, Arial, sans-serif" font-size="46" font-weight="800" fill="#EEF0FA">Build in any modality — without leaving the browser</text>
    <rect x="82" y="170" width="120" height="4" rx="2" fill="url(#hairline)"/><circle cx="800" cy="500" r="150" fill="url(#violetGrad)" opacity="0.12"/><circle cx="800" cy="500" r="104" fill="url(#violetGrad)"/><text x="800" y="492" text-anchor="middle" font-family="Segoe UI, Helvetica Neue, Arial, sans-serif" font-size="24" font-weight="900" fill="#0A0B1E">One</text><text x="800" y="522" text-anchor="middle" font-family="Segoe UI, Helvetica Neue, Arial, sans-serif" font-size="24" font-weight="900" fill="#0A0B1E">project</text><text x="800" y="638" text-anchor="middle" font-family="Segoe UI, Helvetica Neue, Arial, sans-serif" font-size="16" letter-spacing="1" fill="#717892">in-browser IDE · WebGPU · Evermind</text><defs><marker id="ah15034" markerWidth="10" markerHeight="10" refX="7" refY="5" orient="auto"><path d="M0,0 L9,5 L0,10 Z" fill="rgba(139,108,255,0.45)"/></marker></defs>
    <line x1="694" y1="436" x2="510" y2="330" stroke="rgba(139,108,255,0.45)" stroke-width="2.5" marker-end="url(#ah15034)"/><rect x="210" y="225" width="300" height="150" rx="18" fill="rgba(255,255,255,0.035)" stroke="rgba(255,255,255,0.09)" stroke-width="1.5"/><rect x="210" y="225" width="6" height="150" rx="3" fill="url(#coolGrad)"/><text x="240" y="277" font-family="Segoe UI, Helvetica Neue, Arial, sans-serif" font-size="34">🎨</text><text x="288" y="275" font-family="Segoe UI, Helvetica Neue, Arial, sans-serif" font-size="24" font-weight="800" fill="#EEF0FA">Designer</text><text x="240" y="317" font-family="Segoe UI, Helvetica Neue, Arial, sans-serif" font-size="17" fill="#A6ADC8"><tspan x="240" dy="0">Apps &amp; agents — Preview, Code,</tspan><tspan x="240" dy="24">live dev server</tspan></text><defs><marker id="ah22050" markerWidth="10" markerHeight="10" refX="7" refY="5" orient="auto"><path d="M0,0 L9,5 L0,10 Z" fill="rgba(139,108,255,0.45)"/></marker></defs>
    <line x1="906" y1="436" x2="1090" y2="330" stroke="rgba(139,108,255,0.45)" stroke-width="2.5" marker-end="url(#ah22050)"/><rect x="1090" y="225" width="300" height="150" rx="18" fill="rgba(255,255,255,0.035)" stroke="rgba(255,255,255,0.09)" stroke-width="1.5"/><rect x="1090" y="225" width="6" height="150" rx="3" fill="url(#violetGrad)"/><text x="1120" y="277" font-family="Segoe UI, Helvetica Neue, Arial, sans-serif" font-size="34">🧠</text><text x="1168" y="275" font-family="Segoe UI, Helvetica Neue, Arial, sans-serif" font-size="24" font-weight="800" fill="#EEF0FA">LLM</text><text x="1120" y="317" font-family="Segoe UI, Helvetica Neue, Arial, sans-serif" font-size="17" fill="#A6ADC8"><tspan x="1120" dy="0">Custom model — datasets,</tspan><tspan x="1120" dy="24">train, chat; feeds the rest</tspan></text><defs><marker id="ah20350" markerWidth="10" markerHeight="10" refX="7" refY="5" orient="auto"><path d="M0,0 L9,5 L0,10 Z" fill="rgba(139,108,255,0.45)"/></marker></defs>
    <line x1="694" y1="564" x2="510" y2="670" stroke="rgba(139,108,255,0.45)" stroke-width="2.5" marker-end="url(#ah20350)"/><rect x="210" y="625" width="300" height="150" rx="18" fill="rgba(255,255,255,0.035)" stroke="rgba(255,255,255,0.09)" stroke-width="1.5"/><rect x="210" y="625" width="6" height="150" rx="3" fill="url(#mintGrad)"/><text x="240" y="677" font-family="Segoe UI, Helvetica Neue, Arial, sans-serif" font-size="34">🎙</text><text x="288" y="675" font-family="Segoe UI, Helvetica Neue, Arial, sans-serif" font-size="24" font-weight="800" fill="#EEF0FA">Voice</text><text x="240" y="717" font-family="Segoe UI, Helvetica Neue, Arial, sans-serif" font-size="17" fill="#A6ADC8"><tspan x="240" dy="0">Cloned voice — enroll a</tspan><tspan x="240" dy="24">sample, synthesize speech</tspan></text><defs><marker id="ah27366" markerWidth="10" markerHeight="10" refX="7" refY="5" orient="auto"><path d="M0,0 L9,5 L0,10 Z" fill="rgba(139,108,255,0.45)"/></marker></defs>
    <line x1="906" y1="564" x2="1090" y2="670" stroke="rgba(139,108,255,0.45)" stroke-width="2.5" marker-end="url(#ah27366)"/><rect x="1090" y="625" width="300" height="150" rx="18" fill="rgba(255,255,255,0.035)" stroke="rgba(255,255,255,0.09)" stroke-width="1.5"/><rect x="1090" y="625" width="6" height="150" rx="3" fill="url(#roseGrad)"/><text x="1120" y="677" font-family="Segoe UI, Helvetica Neue, Arial, sans-serif" font-size="34">🎬</text><text x="1168" y="675" font-family="Segoe UI, Helvetica Neue, Arial, sans-serif" font-size="24" font-weight="800" fill="#EEF0FA">Video</text><text x="1120" y="717" font-family="Segoe UI, Helvetica Neue, Arial, sans-serif" font-size="17" fill="#A6ADC8"><tspan x="1120" dy="0">Short clips — client-side</tspan><tspan x="1120" dy="24">diffusion on your GPU</tspan></text>
  <g opacity="0.85"><circle cx="1336" cy="838" r="9" fill="url(#violetGrad)"/>
    <text x="1354" y="845" font-family="Segoe UI, Helvetica Neue, Arial, sans-serif" font-size="20" font-weight="700" fill="#A6ADC8">Builderforce.ai</text></g>
  <text x="80" y="844" font-family="Segoe UI, Helvetica Neue, Arial, sans-serif" font-size="17" fill="#717892">The innovation platform for the agentic era</text></svg>