<svg viewBox="0 0 120 120" fill="none" xmlns="http://www.w3.org/2000/svg">
  <defs>
    <linearGradient id="brand-gradient-primary" x1="0%" y1="0%" x2="100%" y2="100%">
      <stop offset="0%" stop-color="#4d9eff"/>
      <stop offset="100%" stop-color="#1e40af"/>
    </linearGradient>
  </defs>

  <!-- BuilderForce brand mark -->
  <rect x="6" y="6" width="108" height="108" rx="26" fill="url(#brand-gradient-primary)"/>
  <path d="M42 34 H66 C76 34 82 40 82 49 C82 55 79 59 74 61 C80 63 84 68 84 75 C84 84 77 90 66 90 H42 Z M54 46 V56 H64 C68 56 70 54 70 51 C70 48 68 46 64 46 Z M54 66 V78 H65 C69 78 72 76 72 72 C72 68 69 66 65 66 Z" fill="#ffffff"/>
</svg>
