<svg xmlns="http://www.w3.org/2000/svg" viewBox="0 0 160 280" width="160" height="280">
  <defs>
    <linearGradient id="fbody" x1="0" y1="0" x2="0" y2="1">
      <stop offset="0" stop-color="#4a9a6f"/>
      <stop offset="0.5" stop-color="#266049"/>
      <stop offset="1" stop-color="#0f3325"/>
    </linearGradient>
    <linearGradient id="flite" x1="0" y1="0" x2="1" y2="0">
      <stop offset="0" stop-color="#d9ffe9" stop-opacity="0.30"/>
      <stop offset="0.55" stop-color="#d9ffe9" stop-opacity="0"/>
    </linearGradient>
    <linearGradient id="ftrunk" x1="0" y1="0" x2="1" y2="0">
      <stop offset="0" stop-color="#5a3d24"/>
      <stop offset="1" stop-color="#2c1c10"/>
    </linearGradient>
    <filter id="ftex" x="-10%" y="-10%" width="120%" height="120%">
      <feTurbulence type="fractalNoise" baseFrequency="0.55 0.9" numOctaves="4" seed="7" stitchTiles="stitch" result="n"/>
      <feColorMatrix in="n" type="matrix" values="0 0 0 0 0  0 0 0 0 0  0 0 0 0 0  0.7 0.7 0.7 0 -0.4"/>
    </filter>
    <mask id="fmask">
      <g fill="#fff">
        <path d="M80,12 L114,70 L105.5,78 L97,70 L88.5,78 L80,70 L71.5,78 L63,70 L54.5,78 L46,70 Z"/>
        <path d="M80,52 L132,130 L119,140 L106,130 L93,140 L80,130 L67,140 L54,130 L41,140 L28,130 Z"/>
        <path d="M80,104 L148,196 L131,207 L114,196 L97,207 L80,196 L63,207 L46,196 L29,207 L12,196 Z"/>
        <path d="M80,162 L158,256 L138.5,268 L119,256 L99.5,268 L80,256 L60.5,268 L41,256 L21.5,268 L2,256 Z"/>
      </g>
    </mask>
  </defs>

  <rect x="72" y="248" width="16" height="32" rx="2" fill="url(#ftrunk)"/>

  <g fill="url(#fbody)">
    <path d="M80,12 L114,70 L105.5,78 L97,70 L88.5,78 L80,70 L71.5,78 L63,70 L54.5,78 L46,70 Z"/>
    <path d="M80,52 L132,130 L119,140 L106,130 L93,140 L80,130 L67,140 L54,130 L41,140 L28,130 Z"/>
    <path d="M80,104 L148,196 L131,207 L114,196 L97,207 L80,196 L63,207 L46,196 L29,207 L12,196 Z"/>
    <path d="M80,162 L158,256 L138.5,268 L119,256 L99.5,268 L80,256 L60.5,268 L41,256 L21.5,268 L2,256 Z"/>
  </g>

  <!-- foliage texture (noise) clipped to the tree -->
  <rect x="0" y="0" width="160" height="280" filter="url(#ftex)" mask="url(#fmask)" opacity="0.5"/>
  <!-- light hitting the upper-left -->
  <rect x="0" y="0" width="160" height="280" fill="url(#flite)" mask="url(#fmask)"/>
</svg>
