<svg xmlns="http://www.w3.org/2000/svg" viewBox="0 0 150 230" width="150" height="230">
  <defs>
    <radialGradient id="rbody" cx="40%" cy="34%" r="72%">
      <stop offset="0" stop-color="#5cab78"/>
      <stop offset="0.6" stop-color="#2c6b4c"/>
      <stop offset="1" stop-color="#11402b"/>
    </radialGradient>
    <linearGradient id="rlite" x1="0" y1="0" x2="1" y2="1">
      <stop offset="0" stop-color="#eafff0" stop-opacity="0.26"/>
      <stop offset="0.5" stop-color="#eafff0" stop-opacity="0"/>
    </linearGradient>
    <linearGradient id="rtrunk" x1="0" y1="0" x2="1" y2="0">
      <stop offset="0" stop-color="#5a3d24"/>
      <stop offset="1" stop-color="#2c1c10"/>
    </linearGradient>
    <filter id="rtex" x="-10%" y="-10%" width="120%" height="120%">
      <feTurbulence type="fractalNoise" baseFrequency="0.6 0.6" numOctaves="4" seed="11" stitchTiles="stitch" result="n"/>
      <feColorMatrix in="n" type="matrix" values="0 0 0 0 0  0 0 0 0 0  0 0 0 0 0  0.7 0.7 0.7 0 -0.42"/>
    </filter>
    <mask id="rmask">
      <g fill="#fff">
        <circle cx="75" cy="92" r="54"/>
        <circle cx="40" cy="114" r="34"/>
        <circle cx="112" cy="110" r="36"/>
        <circle cx="75" cy="142" r="38"/>
        <circle cx="96" cy="68" r="26"/>
        <circle cx="52" cy="72" r="24"/>
      </g>
    </mask>
  </defs>

  <rect x="66" y="168" width="18" height="62" rx="3" fill="url(#rtrunk)"/>

  <g fill="url(#rbody)">
    <circle cx="75" cy="92" r="54"/>
    <circle cx="40" cy="114" r="34"/>
    <circle cx="112" cy="110" r="36"/>
    <circle cx="75" cy="142" r="38"/>
    <circle cx="96" cy="68" r="26"/>
    <circle cx="52" cy="72" r="24"/>
  </g>

  <rect x="0" y="0" width="150" height="230" filter="url(#rtex)" mask="url(#rmask)" opacity="0.5"/>
  <rect x="0" y="0" width="150" height="230" fill="url(#rlite)" mask="url(#rmask)"/>
</svg>
