<svg xmlns="http://www.w3.org/2000/svg" width="1600" height="900" viewBox="0 0 1600 900">
  <defs>
    <radialGradient id="bgGlow" cx="50%" cy="0%" r="120%">
      <stop offset="0%" stop-color="#1B1F46"/>
      <stop offset="55%" stop-color="#13152F"/>
      <stop offset="100%" stop-color="#0A0B1E"/>
    </radialGradient>
    <linearGradient id="violetGrad" x1="0" y1="0" x2="1" y2="1">
      <stop offset="0%" stop-color="#A98BFF"/><stop offset="100%" stop-color="#6A4DF0"/>
    </linearGradient>
    <linearGradient id="coolGrad" x1="0" y1="0" x2="1" y2="1">
      <stop offset="0%" stop-color="#3DD6F5"/><stop offset="100%" stop-color="#4F8BFF"/>
    </linearGradient>
    <linearGradient id="mintGrad" x1="0" y1="0" x2="1" y2="1">
      <stop offset="0%" stop-color="#5BF0BC"/><stop offset="100%" stop-color="#23B987"/>
    </linearGradient>
    <linearGradient id="legacyGrad" x1="0" y1="0" x2="1" y2="1">
      <stop offset="0%" stop-color="#7A8099"/><stop offset="100%" stop-color="#474C63"/>
    </linearGradient>
    <linearGradient id="hairline" x1="0" y1="0" x2="1" y2="0">
      <stop offset="0%" stop-color="rgba(139,108,255,0)"/>
      <stop offset="50%" stop-color="rgba(139,108,255,0.55)"/>
      <stop offset="100%" stop-color="rgba(61,214,245,0)"/>
    </linearGradient>
    <filter id="soft" x="-40%" y="-40%" width="180%" height="180%">
      <feGaussianBlur stdDeviation="14" result="b"/><feMerge>
      <feMergeNode in="b"/><feMergeNode in="SourceGraphic"/></feMerge>
    </filter>
    <filter id="glow" x="-80%" y="-80%" width="260%" height="260%">
      <feGaussianBlur stdDeviation="9"/>
    </filter>
  </defs>
  <rect width="1600" height="900" fill="url(#bgGlow)"/>
  <g transform="translate(1140,450)"><g filter="url(#glow)" opacity="0.55"><line x1="-70.9" y1="127.1" x2="-150.7" y2="28.3" stroke="rgba(139,108,255,0.30)" stroke-width="1.4"/><line x1="-70.9" y1="127.1" x2="27.7" y2="164.3" stroke="rgba(139,108,255,0.30)" stroke-width="1.4"/><line x1="-70.9" y1="127.1" x2="-131.0" y2="108.7" stroke="rgba(139,108,255,0.30)" stroke-width="1.4"/><line x1="-32.8" y1="-83.4" x2="51.7" y2="-61.3" stroke="rgba(139,108,255,0.30)" stroke-width="1.4"/><line x1="-32.8" y1="-83.4" x2="-106.8" y2="-72.5" stroke="rgba(139,108,255,0.30)" stroke-width="1.4"/><line x1="-32.8" y1="-83.4" x2="74.9" y2="-3.1" stroke="rgba(139,108,255,0.30)" stroke-width="1.4"/><line x1="-32.8" y1="-83.4" x2="4.6" y2="-100.6" stroke="rgba(139,108,255,0.30)" stroke-width="1.4"/><line x1="189.7" y1="88.4" x2="74.9" y2="-3.1" stroke="rgba(139,108,255,0.30)" stroke-width="1.4"/><line x1="189.7" y1="88.4" x2="151.5" y2="146.3" stroke="rgba(139,108,255,0.30)" stroke-width="1.4"/><line x1="-150.7" y1="28.3" x2="-106.8" y2="-72.5" stroke="rgba(139,108,255,0.30)" stroke-width="1.4"/><line x1="-150.7" y1="28.3" x2="-131.0" y2="108.7" stroke="rgba(139,108,255,0.30)" stroke-width="1.4"/><line x1="51.7" y1="-61.3" x2="74.9" y2="-3.1" stroke="rgba(139,108,255,0.30)" stroke-width="1.4"/><line x1="51.7" y1="-61.3" x2="4.6" y2="-100.6" stroke="rgba(139,108,255,0.30)" stroke-width="1.4"/><line x1="27.7" y1="164.3" x2="151.5" y2="146.3" stroke="rgba(139,108,255,0.30)" stroke-width="1.4"/><line x1="-106.8" y1="-72.5" x2="4.6" y2="-100.6" stroke="rgba(139,108,255,0.30)" stroke-width="1.4"/><line x1="74.9" y1="-3.1" x2="4.6" y2="-100.6" stroke="rgba(139,108,255,0.30)" stroke-width="1.4"/></g><g><line x1="-70.9" y1="127.1" x2="-150.7" y2="28.3" stroke="rgba(139,108,255,0.30)" stroke-width="1.4"/><line x1="-70.9" y1="127.1" x2="27.7" y2="164.3" stroke="rgba(139,108,255,0.30)" stroke-width="1.4"/><line x1="-70.9" y1="127.1" x2="-131.0" y2="108.7" stroke="rgba(139,108,255,0.30)" stroke-width="1.4"/><line x1="-32.8" y1="-83.4" x2="51.7" y2="-61.3" stroke="rgba(139,108,255,0.30)" stroke-width="1.4"/><line x1="-32.8" y1="-83.4" x2="-106.8" y2="-72.5" stroke="rgba(139,108,255,0.30)" stroke-width="1.4"/><line x1="-32.8" y1="-83.4" x2="74.9" y2="-3.1" stroke="rgba(139,108,255,0.30)" stroke-width="1.4"/><line x1="-32.8" y1="-83.4" x2="4.6" y2="-100.6" stroke="rgba(139,108,255,0.30)" stroke-width="1.4"/><line x1="189.7" y1="88.4" x2="74.9" y2="-3.1" stroke="rgba(139,108,255,0.30)" stroke-width="1.4"/><line x1="189.7" y1="88.4" x2="151.5" y2="146.3" stroke="rgba(139,108,255,0.30)" stroke-width="1.4"/><line x1="-150.7" y1="28.3" x2="-106.8" y2="-72.5" stroke="rgba(139,108,255,0.30)" stroke-width="1.4"/><line x1="-150.7" y1="28.3" x2="-131.0" y2="108.7" stroke="rgba(139,108,255,0.30)" stroke-width="1.4"/><line x1="51.7" y1="-61.3" x2="74.9" y2="-3.1" stroke="rgba(139,108,255,0.30)" stroke-width="1.4"/><line x1="51.7" y1="-61.3" x2="4.6" y2="-100.6" stroke="rgba(139,108,255,0.30)" stroke-width="1.4"/><line x1="27.7" y1="164.3" x2="151.5" y2="146.3" stroke="rgba(139,108,255,0.30)" stroke-width="1.4"/><line x1="-106.8" y1="-72.5" x2="4.6" y2="-100.6" stroke="rgba(139,108,255,0.30)" stroke-width="1.4"/><line x1="74.9" y1="-3.1" x2="4.6" y2="-100.6" stroke="rgba(139,108,255,0.30)" stroke-width="1.4"/></g><g><circle cx="-70.9" cy="127.1" r="6" fill="#3DD6F5"/><circle cx="-32.8" cy="-83.4" r="4" fill="#A98BFF"/><circle cx="189.7" cy="88.4" r="4" fill="#A98BFF"/><circle cx="-150.7" cy="28.3" r="6" fill="#A98BFF"/><circle cx="51.7" cy="-61.3" r="4" fill="#3DD6F5"/><circle cx="27.7" cy="164.3" r="4" fill="#A98BFF"/><circle cx="-106.8" cy="-72.5" r="6" fill="#A98BFF"/><circle cx="74.9" cy="-3.1" r="4" fill="#A98BFF"/><circle cx="-131.0" cy="108.7" r="4" fill="#3DD6F5"/><circle cx="4.6" cy="-100.6" r="6" fill="#A98BFF"/><circle cx="151.5" cy="146.3" r="4" fill="#A98BFF"/></g></g>
  <g transform="translate(1140,450)" filter="url(#soft)">
    <circle r="120" fill="none" stroke="rgba(139,108,255,0.25)" stroke-width="1.5"/>
    <circle r="180" fill="none" stroke="rgba(61,214,245,0.16)" stroke-width="1.5"/>
    <path d="M 0,-26 L -14,4 L -2,4 L -6,26 L 16,-6 L 2,-6 Z" transform="translate(0,0) scale(2.6)" fill="url(#violetGrad)"/>
  </g>
  <text x="120" y="300" font-family="Segoe UI, Helvetica Neue, Arial, sans-serif" font-size="22" letter-spacing="5" font-weight="700" fill="#3DD6F5">MEET EVERMIND</text>
  <text x="118" y="392" font-family="Segoe UI, Helvetica Neue, Arial, sans-serif" font-size="78" font-weight="900" fill="#EEF0FA">The model that</text>
  <text x="118" y="478" font-family="Segoe UI, Helvetica Neue, Arial, sans-serif" font-size="78" font-weight="900" fill="#EEF0FA">learns as it works —</text>
  <text x="118" y="564" font-family="Segoe UI, Helvetica Neue, Arial, sans-serif" font-size="78" font-weight="900" fill="url(#violetGrad)">and never goes stale.</text>
  <text x="120" y="640" font-family="Segoe UI, Helvetica Neue, Arial, sans-serif" font-size="27" fill="#A6ADC8"><tspan x="120" dy="0">A self-updating model governed by Write-Through Cognition —</tspan><tspan x="120" dy="40">the brain of the agentic workforce.</tspan></text>
  <g transform="translate(120,712)">
    <rect width="116" height="116" rx="26" fill="url(#violetGrad)"/>
    <path d="M 0,-26 L -14,4 L -2,4 L -6,26 L 16,-6 L 2,-6 Z" transform="translate(58,58) scale(1.7)" fill="#0A0B1E"/>
  </g>
  <text x="262" y="762" font-family="Segoe UI, Helvetica Neue, Arial, sans-serif" font-size="26" font-weight="800" fill="#EEF0FA">Builderforce.ai</text>
  <text x="262" y="800" font-family="Segoe UI, Helvetica Neue, Arial, sans-serif" font-size="22" fill="#717892">The innovation platform for the agentic era</text>
</svg>